<?xml version="1.0" encoding="UTF-8"?>
<svg width="36px" height="26px" viewBox="0 0 36 26" version="1.1" xmlns="http://www.w3.org/2000/svg" xmlns:xlink="http://www.w3.org/1999/xlink">
    <!-- Generator: Sketch 52.3 (67297) - http://www.bohemiancoding.com/sketch -->
    <title>tab_my_details_icon_24x24</title>
    <desc>Created with Sketch.</desc>
    <g id="Page-1" stroke="none" stroke-width="1" fill="none" fill-rule="evenodd">
        <g id="Splash-Loading" transform="translate(-18.000000, -48.000000)" fill="#000000" fill-rule="nonzero">
            <g id="Group" transform="translate(-66.000000, 0.000000)">
                <g id="tab_my_details_icon_24x24" transform="translate(84.000000, 48.500000)">
                    <path d="M29.4545455,0 L18.1636364,24.512987 L18.1636364,0 L11.6181818,0 L0,25 L5.56363636,25 L7.69090909,20.2922078 L13.0909091,20.2922078 L13.0909091,25 L17.6727273,25 L17.8363636,25 L23.2363636,25 L25.3636364,20.2922078 L31.0909091,20.2922078 L31.0909091,25 L36,25 L36,0 L29.4545455,0 Z M13.2545455,15.2597403 L10.1454545,15.2597403 L13.2545455,8.6038961 L13.2545455,15.2597403 Z M31.0909091,15.2597403 L27.9818182,15.2597403 L31.0909091,8.6038961 L31.0909091,15.2597403 Z" id="Shape"></path>
                </g>
            </g>
        </g>
    </g>
</svg>