<?xml version="1.0" encoding="UTF-8"?>
<svg width="24px" height="24px" viewBox="0 0 24 24" version="1.1" xmlns="http://www.w3.org/2000/svg" xmlns:xlink="http://www.w3.org/1999/xlink">
    <!-- Generator: Sketch 52.3 (67297) - http://www.bohemiancoding.com/sketch -->
    <title>info_aqua</title>
    <desc>Created with Sketch.</desc>
    <g id="info_aqua" stroke="none" stroke-width="1" fill="none" fill-rule="evenodd">
        <path d="M11.1973051,11.7546206 C11.1612714,11.8063326 11.1262079,11.8612141 11.0922686,11.9193678 C10.1604982,13.5162854 9.21769325,15.4550146 10.2010434,16.2805463 C10.4607382,16.498926 10.7368564,16.6092649 11.021956,16.6095272 C11.5048564,16.6099715 12.7742862,16.5684262 13.3929212,16.0857862 C13.5402873,15.9708158 13.5347446,15.8753488 13.5347446,15.7546523 C13.5347446,15.6339558 13.3704069,15.5782703 13.2936789,15.6339558 C12.8928456,15.9264974 11.8549386,15.7388056 11.9544963,15.0847186 C12.0263203,14.6128403 12.3807635,13.9905485 12.7698991,13.2873426 C12.8059328,13.2356306 12.8409963,13.1807491 12.8749355,13.1225953 C13.806706,11.5256778 14.7495109,9.58694852 13.7661608,8.76141683 C13.506466,8.54303713 13.2303478,8.4326982 12.9452482,8.4324359 C12.4623478,8.43199162 11.192918,8.47353698 10.5742829,8.95617692 C10.4269169,9.07114736 10.4324596,9.16661429 10.4324596,9.2873108 C10.4324596,9.4080073 10.5967973,9.46369284 10.6735253,9.4080073 C11.0743586,9.11546576 12.1122655,9.30315753 12.0127078,9.95724453 C11.9408839,10.4291228 11.5864406,11.0514146 11.1973051,11.7546206 Z M10.0911308,20.5038903 C5.45974862,19.4621973 2,15.3243216 2,10.3783784 C2,4.64655827 6.64655827,0 12.3783784,0 C18.1101985,0 22.7567568,4.64655827 22.7567568,10.3783784 C22.7567568,15.0218134 19.707282,18.9530055 15.5017598,20.2785275 L12.7027027,23.6430794 L10.0911308,20.5038903 Z M13.3513514,7.13513514 C14.2469482,7.13513514 14.972973,6.40911041 14.972973,5.51351351 C14.972973,4.61791662 14.2469482,3.89189189 13.3513514,3.89189189 C12.4557545,3.89189189 11.7297297,4.61791662 11.7297297,5.51351351 C11.7297297,6.40911041 12.4557545,7.13513514 13.3513514,7.13513514 Z" id="Path" fill="#06757F"></path>
    </g>
</svg>