<?xml version="1.0" encoding="UTF-8"?>
<svg width="375px" height="20px" viewBox="0 0 375 20" version="1.1" xmlns="http://www.w3.org/2000/svg" xmlns:xlink="http://www.w3.org/1999/xlink">
    <!-- Generator: Sketch 52.3 (67297) - http://www.bohemiancoding.com/sketch -->
    <title>black</title>
    <desc>Created with Sketch.</desc>
    <g id="black" stroke="none" stroke-width="1" fill="none" fill-rule="evenodd">
        <g id="Pin-Right" transform="translate(298.000000, 3.000000)">
            <g id="Battery" transform="translate(9.000000, 0.000000)">
                <g transform="translate(36.000000, 1.500000)">
                    <path d="M3.2048565,0.5 C2.26431807,0.5 1.89540921,0.571239588 1.5147423,0.774822479 C1.19446913,0.946106445 0.946106445,1.19446913 0.774822479,1.5147423 C0.571239588,1.89540921 0.5,2.26431807 0.5,3.2048565 L0.5,8.2951435 C0.5,9.23568193 0.571239588,9.60459079 0.774822479,9.9852577 C0.946106445,10.3055309 1.19446913,10.5538936 1.5147423,10.7251775 C1.89540921,10.9287604 2.26431807,11 3.2048565,11 L22.0738202,11 C22.8614775,11 23.5,10.3614775 23.5,9.57382015 L23.5,3.2048565 C23.5,2.26431807 23.4287604,1.89540921 23.2251775,1.5147423 C23.0538936,1.19446913 22.8055309,0.946106445 22.4852577,0.774822479 C22.1045908,0.571239588 21.7356819,0.5 20.7951435,0.5 L3.2048565,0.5 Z" id="Border" stroke="#000000" opacity="0.400000006"></path>
                    <path d="M25,4 C25.8626136,4.2220214 26.5,5.00507154 26.5,5.93699126 C26.5,6.86891097 25.8626136,7.65196112 25,7.87398251 L25,4 Z" id="Nub" fill="#000000" opacity="0.400000006"></path>
                    <path d="M2.5,2 L21.5,2 C21.7761424,2 22,2.22385763 22,2.5 L22,9 C22,9.27614237 21.7761424,9.5 21.5,9.5 L2.5,9.5 C2.22385763,9.5 2,9.27614237 2,9 L2,2.5 C2,2.22385763 2.22385763,2 2.5,2 Z" id="Charge" fill="#000000"></path>
                </g>
                <text id="100%" font-family="SFProText-Regular, SF Pro Text" font-size="12" font-weight="normal" fill="#030303">
                    <tspan x="2.20898438" y="11.5">100%</tspan>
                </text>
            </g>
            <polyline id="Bluetooth" stroke="#000000" points="0.5 4 6.5 9.5 3.5 12 3.5 2 6.5 4.5 0.5 10"></polyline>
        </g>
        <text id="Time" font-family="SFProText-Semibold, SF Pro Text" font-size="12" font-weight="500" fill="#030303">
            <tspan x="163.239258" y="14.5">9:41 AM</tspan>
        </text>
        <g id="Overrides/Status-Bar/Signal---Black">
            <g id="Group" transform="translate(6.000000, 3.000000)">
                <text id="Carrier" font-family="SFProText-Regular, SF Pro Text" font-size="12" font-weight="normal" fill="#030303">
                    <tspan x="20" y="11.5">The AA</tspan>
                </text>
                <path d="M1,7.5 L2,7.5 C2.55228475,7.5 3,7.94771525 3,8.5 L3,11 C3,11.5522847 2.55228475,12 2,12 L1,12 C0.44771525,12 6.76353751e-17,11.5522847 0,11 L0,8.5 C-6.76353751e-17,7.94771525 0.44771525,7.5 1,7.5 Z M5.5,6 L6.5,6 C7.05228475,6 7.5,6.44771525 7.5,7 L7.5,11 C7.5,11.5522847 7.05228475,12 6.5,12 L5.5,12 C4.94771525,12 4.5,11.5522847 4.5,11 L4.5,7 C4.5,6.44771525 4.94771525,6 5.5,6 Z M10,4 L11,4 C11.5522847,4 12,4.44771525 12,5 L12,11 C12,11.5522847 11.5522847,12 11,12 L10,12 C9.44771525,12 9,11.5522847 9,11 L9,5 C9,4.44771525 9.44771525,4 10,4 Z M14.5,2 L15.5,2 C16.0522847,2 16.5,2.44771525 16.5,3 L16.5,11 C16.5,11.5522847 16.0522847,12 15.5,12 L14.5,12 C13.9477153,12 13.5,11.5522847 13.5,11 L13.5,3 C13.5,2.44771525 13.9477153,2 14.5,2 Z" id="Mobile-Signal" fill="#000000"></path>
                <path d="M65.3295628,4.82956276 C67.2063161,3.07441257 69.7276868,2 72.5,2 C75.2723132,2 77.7936839,3.07441257 79.6704372,4.82956276 L78.2552384,6.24476162 C76.7412564,4.85107918 74.7200183,4 72.5,4 C70.2799817,4 68.2587436,4.85107918 66.7447616,6.24476162 L65.3295628,4.82956276 Z M67.8065309,7.30653087 C69.0481225,6.18377399 70.6942093,5.5 72.5,5.5 C74.3057907,5.5 75.9518775,6.18377399 77.1934691,7.30653087 L75.7767384,8.72326155 C74.8991992,7.96124278 73.7534641,7.5 72.5,7.5 C71.2465359,7.5 70.1008008,7.96124278 69.2232616,8.72326155 L67.8065309,7.30653087 Z M70.2877088,9.78770884 C70.890654,9.29532392 71.6608387,9 72.5,9 C73.3391613,9 74.109346,9.29532392 74.7122912,9.78770884 L72.5,12 L70.2877088,9.78770884 Z" id="Wifi" fill="#000000"></path>
            </g>
        </g>
    </g>
</svg>